{"asset":{"generator":"3D Builder","version":"2.0"},"scene":0,"scenes":[{"nodes":[0]}],"nodes":[{"mesh":0,"matrix":[1,0,0,0,0,-1.1920928955078125E-7,-0.99999988079071045,0,0,0.99999988079071045,-1.1920928955078125E-7,0,0,0,0,1]}],"meshes":[{"primitives":[{"attributes":{"POSITION":0},"mode":4,"indices":1,"material":0}]}],"materials":[{"name":"Translucent","pbrMetallicRoughness":{"baseColorFactor":[0.05412852019071579,0.069618552923202515,0.60395777225494385,1],"metallicFactor":0,"roughnessFactor":1},"alphaMode":"OPAQUE"}],"accessors":[{"bufferView":0,"byteOffset":0,"count":38,"componentType":5126,"type":"VEC3","min":[-0.048999682068824768,-0.00504100788384676,0],"max":[0.048960484564304352,0.0050333268009126186,0.091335415840148926]},{"bufferView":1,"byteOffset":0,"count":216,"componentType":5125,"type":"SCALAR"}],"bufferViews":[{"buffer":0,"byteOffset":0,"byteLength":456,"byteStride":12,"target":34962},{"buffer":0,"byteOffset":456,"byteLength":864,"target":34963}],"buffers":[{"byteLength":1320,"uri":"arrow.bin"}]}