{"asset":{"generator":"3D Builder","version":"2.0"},"scene":0,"scenes":[{"nodes":[0]}],"nodes":[{"mesh":0,"matrix":[0.93847078084945679,0.33194148540496826,-0.095312163233757019,0,-0.0836191177368164,-0.049368556588888168,-0.99527448415756226,0,-0.33507826924324036,0.94200778007507324,-0.018574561923742294,0,-0.035175018012523651,-0.002504643052816391,-0.048257503658533096,1]}],"meshes":[{"primitives":[{"attributes":{"POSITION":0},"mode":4,"indices":1,"material":0}]}],"materials":[{"name":"Metallic","pbrMetallicRoughness":{"baseColorFactor":[0.35884422063827515,0.062987536191940308,0.36382925510406494,1],"metallicFactor":0,"roughnessFactor":0.48000001907348633},"alphaMode":"OPAQUE"}],"accessors":[{"bufferView":0,"byteOffset":0,"count":16,"componentType":5126,"type":"VEC3","min":[0.014505860395729542,-0.099030718207359314,-0.050857901573181152],"max":[0.043979410082101822,-0.0031580920331180096,0.030211210250854492]},{"bufferView":1,"byteOffset":0,"count":84,"componentType":5125,"type":"SCALAR"}],"bufferViews":[{"buffer":0,"byteOffset":0,"byteLength":192,"byteStride":12,"target":34962},{"buffer":0,"byteOffset":192,"byteLength":336,"target":34963}],"buffers":[{"byteLength":528,"uri":"model2.bin"}]}