mtllib materials.mtl
v 0.04397941 -0.04419374 0.03021121
v 0.04376993 -0.04358566 0.029695
v 0.03456023 -0.003158092 -0.0080764
v 0.01450586 -0.09886634 -0.0508579
v 0.0252448 -0.06197476 -0.006999969
v 0.03339908 -0.06337404 -0.01018336
v 0.03405789 -0.04387021 0.008993804
v 0.03395057 -0.04290438 0.008655131
v 0.02662218 -0.04197919 -0.006582856
v 0.02326337 -0.04176569 -0.02431002
v 0.02338198 -0.04099214 -0.0239504
v 0.01864314 -0.03904426 -0.04881176
v 0.04018688 -0.09903073 0.0283356
v 0.03960788 -0.04331648 0.007571071
v 0.02838352 -0.04243779 -0.02925315
v 0.03479078 -0.04305112 -0.009819984
vn 0.441872 0.6641107 0.6030805
vn 0.1107235 -0.7737508 0.6237388
vn -0.8878098 0.1872263 0.4204049
vn -0.8789249 0.1964419 0.4346281
vn -0.960858 0.200976 0.1906845
vn -0.9594322 0.2001581 0.1985612
vn -0.3570592 -0.7160012 -0.5998758
vn 0.97958 -0.06119707 -0.191515
vn 0.8976306 0.09131231 -0.431186
vn 0.9497169 0.01914789 -0.3125241
vn 0.9636387 0.01722346 -0.266653
vn 0.9809843 0.05025771 -0.1874677
vn 0.9651307 -0.07740839 -0.2500615
vn 0.9353386 -0.08801271 -0.3426301
vn 0.8909643 -0.04616845 -0.4517201
vn -0.9795803 0.06119727 0.1915134
vn -0.9803872 0.06364113 0.1865232
vn -0.8986813 0.05282056 0.4354101
vn -0.9045262 0.04806493 0.4237006
vt 0.1392526 -0.03630739
vt 0.1393305 -0.03628036
vt 0.1444127 -0.03390753
vt 0.1398121 -0.02705494
vt 0.1455023 -0.0257822
vt 0.1451392 -0.02497349
vt 0.009900251 0.1748319
vt 0.005514453 0.1713357
vt 0.00777088 0.1709644
vt 0.007820133 0.1710538
vt 0.01473215 0.1735008
vt 0.01257708 0.169765
vt 0.0142585 0.1695639
vt -0.0666801 0.1636352
vt -0.06581262 0.159766
vt -0.06405656 0.1601806
vt -0.06410988 0.1602474
vt -0.06439183 0.1645018
vt -0.06185527 0.1610886
vt -0.05941955 0.1618033
vt -0.1277923 -0.03297452
vt -0.1281539 -0.03378392
vt -0.1230432 -0.03531063
vt 0.07964123 0.159442
vt 0.08137767 0.1646607
vt 0.07918199 0.1653703
vt -0.03557562 0.189696
vt -0.03881798 0.18506
vt -0.03662144 0.1853141
vt 0.0338043 0.1874207
vt 0.03138496 0.1836205
vt 0.03342462 0.1834457
vt 0.05554181 0.1823849
vt 0.05474805 0.1784714
vt 0.0565255 0.1781585
vt 0.09570731 0.1632464
vt 0.09341798 0.1684565
vt 0.09357149 0.1641198
vt 0.05516877 0.1728804
vt 0.05477102 0.1708825
vt 0.0580413 0.1667213
vt 0.05694555 0.1725654
vt 0.01677058 0.1789361
vt 0.01434742 0.17323
vt 0.01876412 0.1768631
vt 0.01881647 0.1788989
vt -0.03260567 0.1790565
vt -0.03154593 0.1731508
vt -0.03040247 0.1792441
vt -0.07595158 0.1664581
vt -0.07589442 0.1663937
vt -0.07167406 0.1616389
vt -0.07356837 0.167332
vt -0.07908266 0.1650847
vt -0.0784609 0.1631788
vt -0.07310096 0.1608833
vt -0.07735566 0.1656074
vt 0.01934518 0.1806396
vt 0.01929119 0.180552
vt 0.01620778 0.1755484
vt 0.0207105 0.1784077
vt 0.02101984 0.1803884
vt 0.01231589 0.1818312
vt 0.0122502 0.1817813
vt 0.01158649 0.1763215
vt 0.01455996 0.1813912
o group1203290615
g mesh1203290615
usemtl mat21
f 3/3/1 2/2/1 1/1/1
f 6/6/2 5/5/2 4/4/2
f 8/10/3 7/9/3 2/8/3 3/7/3
f 9/13/4 8/12/4 3/11/4
f 11/17/5 10/16/5 9/15/5 3/14/5
f 12/20/6 11/19/6 3/18/6
f 13/23/7 5/22/7 6/21/7
f 14/26/8 1/25/8 13/24/8
f 15/29/9 12/28/9 3/27/9
f 16/32/10 15/31/10 3/30/10
f 14/35/11 16/34/11 3/33/11
f 14/38/12 3/37/12 1/36/12
f 14/42/13 13/41/13 6/40/13 16/39/13
f 16/46/14 6/45/14 4/44/14 15/43/14
f 15/49/15 4/48/15 12/47/15
f 12/53/16 4/52/16 10/51/16 11/50/16
f 10/57/17 4/56/17 5/55/17 9/54/17
f 9/62/18 5/61/18 13/60/18 7/59/18 8/58/18
f 7/66/19 13/65/19 1/64/19 2/63/19
