mtllib materials.mtl
v 0.04397941 -0.04419374 0.03021121
v 0.04376993 -0.04358566 0.029695
v 0.03456023 -0.003158092 -0.0080764
v 0.01450586 -0.09886634 -0.0508579
v 0.0252448 -0.06197476 -0.006999969
v 0.03339908 -0.06337404 -0.01018336
v 0.03395057 -0.04290438 0.008655131
v 0.03405789 -0.04387021 0.008993804
v 0.02662218 -0.04197919 -0.006582856
v 0.02338198 -0.04099214 -0.0239504
v 0.02326337 -0.04176569 -0.02431002
v 0.01864314 -0.03904426 -0.04881176
v 0.04018688 -0.09903073 0.0283356
v 0.03960788 -0.04331648 0.007571071
v 0.02838352 -0.04243779 -0.02925315
v 0.03479078 -0.04305112 -0.009819984
vn 0.4414983 0.6641987 0.6032573
vn 0.1107283 -0.7737516 0.6237369
vn -0.8871967 0.1905061 0.4202255
vn -0.9045259 0.04806647 0.4237008
vn -0.8789251 0.1964419 0.4346277
vn -0.9602762 0.2036932 0.1907317
vn -0.9803889 0.06361441 0.1865229
vn -0.9594322 0.2001592 0.1985603
vn -0.3570559 -0.716002 -0.5998769
vn 0.9795798 -0.06119723 -0.1915157
vn 0.8976307 0.09131215 -0.4311859
vn 0.9497167 0.01914797 -0.3125243
vn 0.9636388 0.01722354 -0.2666527
vn 0.9809842 0.0502575 -0.1874682
vn 0.9714283 -0.06242905 -0.228975
vn 0.9594864 -0.08958814 -0.2671324
vn 0.9319844 -0.09529853 -0.3497474
vn 0.9474843 -0.05926438 -0.3142631
vn 0.8909645 -0.04616835 -0.4517197
vn -0.6406106 -0.2407533 0.7291474
vn -0.9795803 0.06119703 0.191513
vn -0.9803873 0.06364205 0.1865219
vn -0.9803872 0.06364121 0.1865229
vn -0.8986817 0.05282124 0.4354092
vn -0.8986818 0.05281996 0.4354091
vn -0.8986804 0.05282184 0.4354117
vn -0.9045321 0.04806587 0.4236876
vn -0.9045261 0.04806515 0.4237008
vt 0.5696126 0.481864
vt 0.5696515 0.4818775
vt 0.5721928 0.4830636
vt 0.5699059 0.4864728
vt 0.572751 0.4871091
vt 0.5725695 0.4875135
vt 0.5038453 0.5853798
vt 0.5048843 0.5872694
vt 0.5026923 0.5855201
vt 0.507306 0.5907399
vt 0.5061579 0.5909155
vt 0.50728 0.5906956
vt 0.507366 0.5867504
vt 0.5062885 0.5848825
vt 0.5071292 0.584782
vt 0.4680559 0.5800389
vt 0.4667725 0.5817341
vt 0.4672043 0.5797991
vt 0.461292 0.582836
vt 0.4604573 0.5825426
vt 0.4613208 0.582804
vt 0.467804 0.5822508
vt 0.4690723 0.5805442
vt 0.4702901 0.5809016
vt 0.436104 0.4835129
vt 0.4359232 0.4831082
vt 0.4384786 0.4823448
vt 0.5398205 0.579721
vt 0.5406887 0.5823304
vt 0.5395909 0.5826852
vt 0.4822122 0.594848
vt 0.4805911 0.59253
vt 0.4816893 0.592657
vt 0.5169021 0.5937104
vt 0.5156924 0.5918102
vt 0.5167122 0.5917228
vt 0.5277709 0.5911924
vt 0.5273741 0.5892357
vt 0.5282628 0.5890792
vt 0.5478535 0.5816233
vt 0.5467089 0.5842283
vt 0.5467857 0.58206
vt 0.5320246 0.5855122
vt 0.5317832 0.5845226
vt 0.5333284 0.5823743
vt 0.5240399 0.5869843
vt 0.5255781 0.5839544
vt 0.5249333 0.5868566
vt 0.5069489 0.5893052
vt 0.5057746 0.5864364
vt 0.5079591 0.5882818
vt 0.5143794 0.5897853
vt 0.5153174 0.5886954
vt 0.5154003 0.5897107
vt 0.4836972 0.5895283
vt 0.4842271 0.5865754
vt 0.4847988 0.5896221
vt 0.587797 0.5397453
vt 0.5877689 0.5397127
vt 0.5856918 0.5373064
vt 0.4620241 0.5832291
vt 0.4641629 0.5808194
vt 0.4632157 0.583666
vt 0.4604585 0.5825422
vt 0.4607694 0.5815893
vt 0.4634494 0.5804415
vt 0.4604586 0.5825423
vt 0.4634495 0.5804417
vt 0.4613221 0.5828037
vt 0.5105097 0.5901942
vt 0.5096724 0.5903198
vt 0.5096454 0.590276
vt 0.5105097 0.5901942
vt 0.5096454 0.590276
vt 0.5081037 0.5877742
vt 0.5105102 0.5901941
vt 0.5081042 0.5877741
vt 0.5103555 0.5892038
vt 0.5061551 0.5909158
vt 0.5061222 0.5908909
vt 0.5057905 0.5881609
vt 0.506158 0.5909156
vt 0.5057933 0.5881608
vt 0.50728 0.5906956
o group1203290615
g mesh1203290615
usemtl mat21
f 3/3/1 2/2/1 1/1/1
f 6/6/2 5/5/2 4/4/2
f 2/9/3 3/8/3 7/7/3
f 8/12/4 2/11/4 7/10/4
f 9/15/5 7/14/5 3/13/5
f 9/18/6 3/17/6 10/16/6
f 11/21/7 9/20/7 10/19/7
f 12/24/8 10/23/8 3/22/8
f 13/27/9 5/26/9 6/25/9
f 14/30/10 1/29/10 13/28/10
f 15/33/11 12/32/11 3/31/11
f 16/36/12 15/35/12 3/34/12
f 14/39/13 16/38/13 3/37/13
f 14/42/14 3/41/14 1/40/14
f 13/45/15 6/44/15 16/43/15
f 14/48/16 13/47/16 16/46/16
f 6/51/17 4/50/17 15/49/17
f 16/54/18 6/53/18 15/52/18
f 15/57/19 4/56/19 12/55/19
f 4/60/20 11/59/20 10/58/20
f 12/63/21 4/62/21 10/61/21
f 4/66/22 5/65/22 9/64/22
f 11/69/23 4/68/23 9/67/23
f 8/72/24 7/71/24 9/70/24
f 13/75/25 8/74/25 9/73/25
f 5/78/26 13/77/26 9/76/26
f 13/81/27 1/80/27 2/79/27
f 8/84/28 13/83/28 2/82/28
